<?xml version="1.0" encoding="UTF-8" standalone="no"?>
<svg
   xmlns:dc="http://purl.org/dc/elements/1.1/"
   xmlns:cc="http://creativecommons.org/ns#"
   xmlns:rdf="http://www.w3.org/1999/02/22-rdf-syntax-ns#"
   xmlns:svg="http://www.w3.org/2000/svg"
   xmlns="http://www.w3.org/2000/svg"
   xmlns:sodipodi="http://sodipodi.sourceforge.net/DTD/sodipodi-0.dtd"
   xmlns:inkscape="http://www.inkscape.org/namespaces/inkscape"
   inkscape:version="1.0 (4035a4fb49, 2020-05-01)"
   sodipodi:docname="code.svg"
   id="svg9"
   version="1.1"
   viewBox="0 0 24 24"
   height="24px"
   width="24px">
  <metadata
     id="metadata15">
    <rdf:RDF>
      <cc:Work
         rdf:about="">
        <dc:format>image/svg+xml</dc:format>
        <dc:type
           rdf:resource="http://purl.org/dc/dcmitype/StillImage" />
      </cc:Work>
    </rdf:RDF>
  </metadata>
  <defs
     id="defs13" />
  <sodipodi:namedview
     inkscape:current-layer="svg9"
     inkscape:window-maximized="1"
     inkscape:window-y="-8"
     inkscape:window-x="-8"
     inkscape:cy="12"
     inkscape:cx="12"
     inkscape:zoom="22.416667"
     showgrid="false"
     id="namedview11"
     inkscape:window-height="748"
     inkscape:window-width="1280"
     inkscape:pageshadow="2"
     inkscape:pageopacity="0"
     guidetolerance="10"
     gridtolerance="10"
     objecttolerance="10"
     borderopacity="1"
     bordercolor="#666666"
     pagecolor="#ffffff" />
  <!-- Uploaded to SVGRepo https://www.svgrepo.com -->
  <title
     id="title2">ic_fluent_code_24_regular</title>
  <desc
     id="desc4">Created with Sketch.</desc>
  <g
     style="fill:#ffffff"
     fill-rule="evenodd"
     fill="none"
     stroke-width="1"
     stroke="none"
     id="ðŸ”-Product-Icons">
    <g
       style="fill:#ffffff"
       fill-rule="nonzero"
       fill="#212121"
       id="ic_fluent_code_24_regular">
      <path
         style="fill:#ffffff"
         id="ðŸŽ¨-Color"
         d="M8.06561801,18.9432081 L14.565618,4.44320807 C14.7350545,4.06523433 15.1788182,3.8961815 15.5567919,4.06561801 C15.9032679,4.2209348 16.0741922,4.60676263 15.9697642,4.9611247 L15.934382,5.05679193 L9.43438199,19.5567919 C9.26494549,19.9347657 8.82118181,20.1038185 8.44320807,19.934382 C8.09673215,19.7790652 7.92580781,19.3932374 8.03023576,19.0388753 L8.06561801,18.9432081 L14.565618,4.44320807 L8.06561801,18.9432081 Z M2.21966991,11.4696699 L6.46966991,7.21966991 C6.76256313,6.9267767 7.23743687,6.9267767 7.53033009,7.21966991 C7.79659665,7.48593648 7.8208027,7.90260016 7.60294824,8.19621165 L7.53033009,8.28033009 L3.81066017,12 L7.53033009,15.7196699 C7.8232233,16.0125631 7.8232233,16.4874369 7.53033009,16.7803301 C7.26406352,17.0465966 6.84739984,17.0708027 6.55378835,16.8529482 L6.46966991,16.7803301 L2.21966991,12.5303301 C1.95340335,12.2640635 1.9291973,11.8473998 2.14705176,11.5537883 L2.21966991,11.4696699 L6.46966991,7.21966991 L2.21966991,11.4696699 Z M16.4696699,7.21966991 C16.7359365,6.95340335 17.1526002,6.9291973 17.4462117,7.14705176 L17.5303301,7.21966991 L21.7803301,11.4696699 C22.0465966,11.7359365 22.0708027,12.1526002 21.8529482,12.4462117 L21.7803301,12.5303301 L17.5303301,16.7803301 C17.2374369,17.0732233 16.7625631,17.0732233 16.4696699,16.7803301 C16.2034034,16.5140635 16.1791973,16.0973998 16.3970518,15.8037883 L16.4696699,15.7196699 L20.1893398,12 L16.4696699,8.28033009 C16.1767767,7.98743687 16.1767767,7.51256313 16.4696699,7.21966991 Z" />
    </g>
  </g>
</svg>
